<svg width="217" height="150" viewBox="0 0 217 150" fill="none" xmlns="http://www.w3.org/2000/svg">
<path d="M15.387 0.545208C10.258 1.70297 4.87468 5.40782 2.45853 9.49859C0.254331 13.242 0 15.1331 0 30.184C0 37.7867 0.127165 44 0.254331 44C0.381496 44 1.01732 43.6913 1.61076 43.2667C4.15407 41.6459 8.94397 39.7163 12.3351 38.983C15.8533 38.2112 16.9978 38.2112 108.515 38.2112C198.378 38.2112 201.218 38.2498 204.524 38.9444C208.594 39.832 211.137 40.7968 214.274 42.6493C215.546 43.3825 216.732 44 216.86 44C217.029 44 217.029 41.5301 216.944 38.4813C216.775 34.1976 216.563 32.5381 215.885 30.8015C213.384 24.6653 207.11 19.9185 200.074 18.9151C198.336 18.6835 177.014 18.5292 141.281 18.5292C103.174 18.5292 84.8618 18.4134 84.0988 18.1046C83.4206 17.9117 79.2665 14.4384 74.8581 10.4634C66.2108 2.70637 64.5577 1.62579 59.683 0.583797C56.1224 -0.188046 18.8205 -0.188046 15.387 0.545208Z" fill="#DCE9FE"/>
<path d="M13.976 27.7325C7.4938 29.6217 2.49446 34.5568 0.715036 40.7641C-0.259411 44.1184 -0.217044 132.371 0.715036 136.072C2.49446 142.858 8.80718 148.332 16.3486 149.566C19.9074 150.145 197.172 150.145 200.731 149.566C206.323 148.641 211.916 144.978 214.543 140.506C217.042 136.265 217 137.768 217 88.3024C217 49.3619 216.915 42.6533 216.364 40.7641C214.585 34.4797 209.798 29.8145 203.146 27.8096L200.519 27L108.455 27.0386C20.3735 27.0386 16.3062 27.0771 13.976 27.7325Z" fill="#E8F0FE"/>
</svg>
