<svg width="101" height="78" viewBox="0 0 101 78" fill="none" xmlns="http://www.w3.org/2000/svg">
<path d="M7.12126 0.285593C4.74751 0.892242 2.25605 2.83352 1.13783 4.97702C0.117707 6.93852 0 7.92938 0 15.8158C0 19.7995 0.0588534 23.0552 0.117707 23.0552C0.17656 23.0552 0.470827 22.8934 0.745477 22.671C1.92254 21.8217 4.13936 20.8106 5.70878 20.4264C7.33706 20.0219 7.86674 20.0219 50.2216 20.0219C91.8113 20.0219 93.1257 20.0421 94.6559 20.4061C96.5392 20.8712 97.7163 21.3768 99.168 22.3474C99.7565 22.7316 100.306 23.0552 100.365 23.0552C100.443 23.0552 100.443 21.761 100.404 20.1635C100.325 17.9189 100.227 17.0493 99.9135 16.1394C98.756 12.9241 95.8526 10.4369 92.596 9.9111C91.7917 9.78977 81.924 9.70888 65.3861 9.70888C47.7497 9.70888 39.2748 9.64822 38.9217 9.48645C38.6078 9.38534 36.6853 7.56539 34.645 5.48256C30.643 1.418 29.8779 0.851799 27.6219 0.305815C25.974 -0.0986176 8.7103 -0.0986176 7.12126 0.285593Z" fill="#E1F0E4"/>
<path d="M6.46822 15.4743C3.4682 16.4268 1.15446 18.9148 0.330926 22.0442C-0.120058 23.7353 -0.10045 68.2279 0.330926 70.0939C1.15446 73.5149 4.07605 76.275 7.56627 76.897C9.21334 77.1886 91.2531 77.1886 92.9002 76.897C95.4885 76.4305 98.0767 74.584 99.2924 72.3292C100.449 70.1911 100.43 70.9492 100.43 46.0107C100.43 26.3788 100.39 22.9967 100.136 22.0442C99.312 18.8759 97.0963 16.524 94.0179 15.5132L92.8022 15.105L50.194 15.1244C9.42903 15.1244 7.54666 15.1439 6.46822 15.4743Z" fill="#F3F9F4"/>
</svg>
